# xmcd CD database file
#
# Track frame offsets:
#	150
#	24287
#	41387
#	62103
#	72921
#	95778
#	99945
#	145747
#	175216
#	199711
#	216053
#	249927
#
# Disc length: 3954 seconds
#
# Revision: 0
# Processed by: cddbd v1.4PL0 Copyright (c) Steve Scherf et al.
# Submitted via: CDex 1.40Release
#
DISCID=9f0f700c
DTITLE=Muddy Waters - The Lost Tapes
DYEAR=1999
DGENRE=Blues
TTITLE0=Honey Bee (Live - Washington University, 1971)
TTITLE1=Hoochie Coochie Man (Live - Washington University, 1971)
TTITLE2=Walking Thru The Park (Live - Washington University, 1971)
TTITLE3=Trouble No More (Live - Washington University, 1971)
TTITLE4=Just To Be With You (Live - Washington University, 1971)
TTITLE5=Muddy's Introduction to "19 Years Old" (Live - Washington University, 1971)
TTITLE6=She's 19 Years Old (Live - Washington University, 1971)
TTITLE7=Long Distance Call (Live - Oregon University, 1971)
TTITLE8=Mannish Boy (Live - Oregon University, 1971)
TTITLE9=Crawlin' Kingsnake (Live - Oregon University, 1971)
TTITLE10=Got My Mojo Working (Live - Oregon University, 1971)
TTITLE11=Data Track
EXTD=YEAR: 1999 ID3G: 0
EXTT0=
EXTT1=
EXTT2=
EXTT3=
EXTT4=
EXTT5=
EXTT6=
EXTT7=
EXTT8=
EXTT9=
EXTT10=
EXTT11=
PLAYORDER=
